<svg color-interpolation-filters="sRGB" viewBox="0 0 300 100">
    <g transform="translate(35,20)" fill="#00c9ff">
        <g transform="translate(0)" mask="url(#b)">
            <svg width="60" height="63.949" overflow="visible">
                <svg enable-background="new 0 0 64 64" fill="#000000" version="1.1"
                    viewBox="3.14833402633667 1.2495145797729492 57.70317459106445 61.501094818115234">
                    <path
                        d="m58.254 2.789c-2.143-1.725-5.105-2.027-7.547-0.771l-43.783 22.51c-2.643 1.359-4.101 4.143-3.714 7.094 0.387 2.953 2.515 5.267 5.418 5.9l18.443 4.009 7.859 17.164c1.24 2.702 3.955 4.283 6.92 4.029s5.374-2.273 6.136-5.145l12.633-47.582 1e-3 -3e-3c0.703-2.655-0.226-5.482-2.366-7.205zm-17.397 49.766-8.216-17.944-19.286-4.192 38.655-19.872-11.153 42.008z">
                    </path>
                </svg>
            </svg>
            <rect transform="translate(-6 -6)" width="72" height="75.949" fill="url(#a)" pointer-events="none"
                v-gra="id" />
        </g>
        <g transform="translate(67 15.219)">
            <g fill="url(#a)" fill-rule="" data-gra="path-name">
                <g transform="scale(1)">
                    <path transform="translate(-.37 26.04)"
                        d="m13.19 0h-4.65l-8.17-26.01h4.68l5.76 18.32 5.31-18.32h4.68l5.76 18.32 5.32-18.32h4.64l-7.58 26.01h-4.64l-5.76-18.32-5.35 18.32zm37-18.61h4.46v18.61h-4.46v-9.29q0-2.23-1.56-3.79t-3.79-1.56q-1.08 0-2.06 0.41-0.99 0.41-1.73 1.15-1.56 1.56-1.56 3.79 0 2.19 1.56 3.75 0.74 0.78 1.73 1.17 0.98 0.39 2.06 0.39 1.11 0 2.01-0.37l1.59 3.98q-1.7 0.85-3.97 0.85-2.04 0-3.77-0.76t-2.99-2.1q-1.27-1.34-1.97-3.12-0.71-1.78-0.71-3.79 0-2.04 0.71-3.82 0.7-1.79 1.97-3.12 1.26-1.34 2.99-2.1 1.73-0.77 3.77-0.77 1.82 0 3.23 0.56t2.49 1.41v-1.48zm23.18 0.03h4.91l-8.62 18.58-1.15 2.53q-1.04 2.26-3.13 3.6-2.08 1.34-4.6 1.34h-1.97l1.11-4.46h1.08q1.08 0 2.01-0.6 0.93-0.59 1.37-1.59l0.37-0.82-8.62-18.58h4.91l6.16 13.3 6.17-13.3zm14.97-2.97q-0.93 0-1.72 0.36-0.8 0.35-1.42 0.94-0.61 0.6-0.98 1.4-0.37 0.79-0.37 1.72h2.64l1.11 4.46h-3.75v12.67h-4.46v-12.67-4.42-0.04q0.04-1.78 0.71-3.4 0.66-1.61 1.93-2.87 1.26-1.27 2.9-1.94 1.63-0.67 3.41-0.67v4.46zm6.13 21.55h-4.45v-18.58h4.45v18.58zm-4.45-21.55v-4.46h4.45v4.46h-4.45zm16.42 2.45q1.82 0 3.3 0.69 1.49 0.69 2.55 1.9 1.06 1.2 1.63 2.8 0.58 1.6 0.58 3.42v10.29h-4.46v-10.29q0-1.86-1.3-3.08-1.26-1.27-3.05-1.27-1.82 0-3.08 1.27-1.26 1.26-1.26 3.08v10.29h-4.46v-18.58h4.46v1.42q1-0.86 2.26-1.4 1.27-0.54 2.83-0.54zm24.85-6.94h4.46v26.04h-4.46v-9.29q0-2.26-1.56-3.79-1.56-1.56-3.75-1.56-2.23 0-3.79 1.56t-1.56 3.79q0 2.19 1.56 3.75 0.74 0.78 1.72 1.17 0.99 0.39 2.07 0.39 1.07 0 1.97-0.37l1.59 3.98q-1.71 0.85-3.93 0.85-2.05 0-3.78-0.76-1.72-0.76-2.99-2.1-1.26-1.34-1.97-3.12-0.7-1.78-0.7-3.79 0-2.04 0.7-3.82 0.71-1.79 1.97-3.12 1.27-1.34 2.99-2.1 1.73-0.77 3.78-0.77 1.78 0 3.19 0.56t2.49 1.41v-8.91zm25.86 18.98h-4.68-9.74q0.37 0.86 1.08 1.52 0.78 0.78 1.75 1.17 0.96 0.39 2.04 0.39 1.52 0 2.71-0.7l4.64 1.86q-1.33 1.56-3.23 2.43-1.89 0.87-4.12 0.87-2.04 0-3.83-0.76-1.78-0.76-3.12-2.1t-2.1-3.12-0.76-3.79q0-2.04 0.76-3.82 0.76-1.79 2.1-3.12 1.34-1.34 3.12-2.1 1.79-0.77 3.83-0.77t3.82 0.77q1.79 0.76 3.13 2.1 1.33 1.33 2.09 3.12 0.77 1.78 0.77 3.82 0 1.19-0.26 2.23zm-9.55-7.58q-2.16 0-3.79 1.56-0.71 0.71-1.08 1.56h9.74q-0.38-0.85-1.08-1.56-1.56-1.56-3.79-1.56zm16.31-2.52q1.04-0.86 2.36-1.42 1.32-0.55 2.99-0.55v4.46q-2.23 0-3.79 1.56-1.56 1.63-1.56 3.79v9.32h-4.46v-9.32-9.29h4.46v1.45z" />
                </g>
            </g>
        </g>
    </g>
    <defs v-gra="od">
        <linearGradient id="a" x2="0" y1="1">
            <stop stop-color="#00c9ff" offset="0" />
            <stop stop-color="#92fe9d" offset="1" />
        </linearGradient>
    </defs>
    <defs v-gra="id">
        <filter id="c" filterUnits="userSpaceOnUse">
            <feColorMatrix values="0 0 0 0 0.99609375  0 0 0 0 0.99609375  0 0 0 0 0.99609375  0 0 0 1 0">
            </feColorMatrix>
        </filter>
    </defs>
    <mask id="b" v-gra="im">
        <g filter="url(#c)">
            <rect width="60" height="63.949" fill="#00c9ff" fill-opacity="0" stroke-width="2" />
            <svg width="60" height="63.949" overflow="visible">
                <svg enable-background="new 0 0 64 64" fill="#000000" version="1.1"
                    viewBox="3.14833402633667 1.2495145797729492 57.70317459106445 61.501094818115234">
                    <path
                        d="m58.254 2.789c-2.143-1.725-5.105-2.027-7.547-0.771l-43.783 22.51c-2.643 1.359-4.101 4.143-3.714 7.094 0.387 2.953 2.515 5.267 5.418 5.9l18.443 4.009 7.859 17.164c1.24 2.702 3.955 4.283 6.92 4.029s5.374-2.273 6.136-5.145l12.633-47.582 1e-3 -3e-3c0.703-2.655-0.226-5.482-2.366-7.205zm-17.397 49.766-8.216-17.944-19.286-4.192 38.655-19.872-11.153 42.008z">
                    </path>
                </svg>
            </svg>
        </g>
    </mask>
</svg>